<svg id="SvgjsSvg1008" xmlns="http://www.w3.org/2000/svg" version="1.1" xmlns:xlink="http://www.w3.org/1999/xlink" xmlns:svgjs="http://svgjs.com/svgjs" width="17" height="15"><defs id="SvgjsDefs1009"></defs><path id="SvgjsPath1010" d="M847.416 9121.36C846.8430000000001 9121.36 846.282 9121.19 845.74 9121.11C843.549 9123.890000000001 840.093 9123.34 840.093 9123.34C842.534 9122.19 842.4839999999999 9120.27 842.05 9120.02C840.1339999999999 9118.890000000001 838.982 9117.18 838.982 9115.26C838.982 9111.86 842.709 9109.12 847.4159999999999 9109.12C852.1239999999999 9109.12 854.9929999999999 9111.86 854.9929999999999 9115.26C854.9929999999999 9118.65 852.1239999999999 9121.36 847.4159999999999 9121.36ZM843.242 9113.88C842.414 9113.88 841.742 9114.55 841.742 9115.369999999999C841.742 9116.199999999999 842.414 9116.869999999999 843.242 9116.869999999999C844.0709999999999 9116.869999999999 844.742 9116.199999999999 844.742 9115.369999999999C844.742 9114.55 844.0709999999999 9113.88 843.242 9113.88ZM846.992 9113.88C846.164 9113.88 845.492 9114.55 845.492 9115.369999999999C845.492 9116.199999999999 846.164 9116.869999999999 846.992 9116.869999999999C847.8209999999999 9116.869999999999 848.492 9116.199999999999 848.492 9115.369999999999C848.492 9114.55 847.8209999999999 9113.88 846.992 9113.88ZM850.742 9113.88C849.914 9113.88 849.242 9114.55 849.242 9115.369999999999C849.242 9116.199999999999 849.914 9116.869999999999 850.742 9116.869999999999C851.5709999999999 9116.869999999999 852.242 9116.199999999999 852.242 9115.369999999999C852.242 9114.55 851.5709999999999 9113.88 850.742 9113.88Z " fill="#95e1d3" transform="matrix(1,0,0,1,-838,-9109)"></path></svg>